<?xml version="1.0" encoding="UTF-8" standalone="no"?>
<svg
   xmlns:dc="http://purl.org/dc/elements/1.1/"
   xmlns:cc="http://creativecommons.org/ns#"
   xmlns:rdf="http://www.w3.org/1999/02/22-rdf-syntax-ns#"
   xmlns:svg="http://www.w3.org/2000/svg"
   xmlns="http://www.w3.org/2000/svg"
   viewBox="0 0 1289.8121 1718.68"
   height="733"
   width="550"
   xml:space="preserve"
   id="svg2"
   version="1.1"><metadata
     id="metadata8"><rdf:RDF><cc:Work
         rdf:about=""><dc:format>image/svg+xml</dc:format><dc:type
           rdf:resource="http://purl.org/dc/dcmitype/StillImage" /></cc:Work></rdf:RDF></metadata><defs
     id="defs6"><clipPath
       id="clipPath36"
       clipPathUnits="userSpaceOnUse"><path
         id="path34"
         d="m 7670.89,4033.27 c 0,0 -435.21,-803.47 -80.35,-1673.87 l -2856.46,42.2 -2222.94,37.6 c 0,0 -227.65,467.05 -147.31,1022.78 80.35,555.74 160.7,689.69 160.7,689.69 l 5146.36,-118.4" /></clipPath><clipPath
       id="clipPath78"
       clipPathUnits="userSpaceOnUse"><path
         id="path76"
         d="m 2514.06,4486.68 c 0,0 436.22,539.11 80.53,1123.15 l 2863.1,-28.31 2228.1,-25.28 c 0,0 228.18,-313.35 147.64,-686.23 -80.53,-372.89 -161.06,-462.77 -161.06,-462.77 l -5158.31,79.44" /></clipPath><clipPath
       id="clipPath102"
       clipPathUnits="userSpaceOnUse"><path
         id="path100"
         d="m 6863.9,8236 c 0,0 -296.24,-454.97 -54.69,-947.84 l -1944.33,23.89 -1513.1,21.33 c 0,0 -154.95,264.45 -100.26,579.13 54.69,314.68 109.38,390.53 109.38,390.53 l 3503,-67.04" /></clipPath><clipPath
       id="clipPath126"
       clipPathUnits="userSpaceOnUse"><path
         id="path124"
         d="m 3264.31,5904.28 c 0,0 323.66,571.28 59.75,1190.16 l 2124.28,-30 1653.14,-26.78 c 0,0 169.3,-332.05 109.54,-727.18 -59.75,-395.14 -119.5,-490.38 -119.5,-490.38 l -3827.21,84.18" /></clipPath><clipPath
       id="clipPath166"
       clipPathUnits="userSpaceOnUse"><path
         id="path164"
         d="m 4855.21,8800.86 c 0,0 -518.21,114.61 -526.66,121.16 -5.88,4.56 -16.22,103.94 -26.58,231.08 -15.96,195.64 -31.99,457.01 -32.01,539.69 -0.01,16 0.59,25.31 1.9,26.15 l 596.74,-109.81 c 0,0 527.67,77.07 598.17,77.07 4.77,0 7.43,-0.35 7.71,-1.1 0.35,-0.94 0.52,-2.95 0.53,-5.94 0.05,-75.5 -106.73,-778.57 -112.45,-780.52 -2.93,-1.01 -507.35,-97.78 -507.35,-97.78" /></clipPath></defs><g
     transform="matrix(1.3333333,0,0,-1.3333333,0,1718.68)"
     id="g10"><g
       transform="scale(0.1)"
       id="g12"><path
         id="path14"
         style="fill:#ffffff;fill-opacity:1;fill-rule:nonzero;stroke:none"
         d="M 0,0 H 9673.59 V 12890.1 H 0 Z" /><path
         id="path16"
         style="fill:#fff2e0;fill-opacity:1;fill-rule:nonzero;stroke:none"
         d="m 1804.98,2746.4 -1157.328,568.52 1263.578,458.87 3701.41,108.5 3.65,-1143.59 -3811.31,7.7" /><path
         id="path18"
         style="fill:#ffab3b;fill-opacity:1;fill-rule:nonzero;stroke:none"
         d="m 1185.59,3050.68 -537.938,264.24 537.938,-264.24 v 0 m -537.938,264.24 569.498,206.82 v 0 L 647.652,3314.92" /><path
         id="path20"
         style="fill:#ffa234;fill-opacity:1;fill-rule:nonzero;stroke:none"
         d="m 1185.59,3050.68 -537.938,264.24 569.498,206.82 c -11.05,-168.55 -22.66,-343.24 -31.56,-471.06" /><path
         id="path22"
         style="fill:#ffbc62;fill-opacity:1;fill-rule:nonzero;stroke:none"
         d="m 1914.36,3773.89 57.68,-216.21 -227.15,-193.14 213.96,-276.99 -175.85,-330.35 21.98,-10.8 3811.31,-7.7 -3.65,1143.59 -3698.28,-108.4" /><path
         id="path24"
         style="fill:#ff7e17;fill-opacity:1;fill-rule:nonzero;stroke:none"
         d="m 2336.24,2745.4 -531.26,1 -21.98,10.8 175.85,330.35 -213.96,276.99 518.33,5.72 c 4.26,-221.68 35.9,-444.71 73.02,-624.86 m -364.2,812.28 -57.68,216.21 57.68,-216.21" /><path
         id="path26"
         style="fill:#ffbc62;fill-opacity:1;fill-rule:nonzero;stroke:none"
         d="m 5612.64,3882.29 -3698.28,-108.4 57.68,-216.21 -227.15,-193.14 3869.26,42.69 -1.51,475.06" /><path
         id="path28"
         style="fill:#78ceff;fill-opacity:1;fill-rule:nonzero;stroke:none"
         d="m 7590.54,2359.4 c 0,0 516.99,-78 388.35,-90.4 -1004.34,-97.1 -5404.15,35.5 -5521.32,87.4 -64.37,28.5 -425.17,1394.33 36.83,1846.28 184.35,180.35 4503.58,48.2 5370.66,-93.21 449.91,-73.37 -194.17,-76.2 -194.17,-76.2 C 7183.52,3492.7 7183.92,2933.71 7590.54,2359.4" /><g
         id="g30"><g
           clip-path="url(#clipPath36)"
           id="g32"><path
             id="path38"
             style="fill:#fff0dd;fill-opacity:1;fill-rule:nonzero;stroke:none"
             d="m 7670.89,4033.27 c 0,0 -435.21,-803.47 -80.35,-1673.87 l -2856.46,42.2 -2222.94,37.6 c 0,0 -227.65,467.05 -147.31,1022.78 80.35,555.74 160.7,689.69 160.7,689.69 l 5146.36,-118.4" /><path
             id="path40"
             style="fill:#abb8bf;fill-opacity:1;fill-rule:nonzero;stroke:none"
             d="m 7587.68,3830.96 -5143.21,62.16 0.2,17.74 5143.21,-62.16 -0.2,-17.74" /><path
             id="path42"
             style="fill:#abb8bf;fill-opacity:1;fill-rule:nonzero;stroke:none"
             d="m 7499.16,3522.27 -5152.81,167.18 0.6,17.74 5152.8,-167.18 -0.59,-17.74" /><path
             id="path44"
             style="fill:#abb8bf;fill-opacity:1;fill-rule:nonzero;stroke:none"
             d="m 7461.59,3281.46 -5098.05,171.65 0.59,17.74 5098.04,-171.65 -0.58,-17.74" /><path
             id="path46"
             style="fill:#abb8bf;fill-opacity:1;fill-rule:nonzero;stroke:none"
             d="m 7443.9,3050.8 -5166.41,71.32 0.24,17.75 5166.41,-71.33 -0.24,-17.74" /><path
             id="path48"
             style="fill:#abb8bf;fill-opacity:1;fill-rule:nonzero;stroke:none"
             d="m 2363.94,2743.3 -0.21,17.7 5105.79,59.3 0.21,-17.7 -5105.79,-59.3" /><path
             id="path50"
             style="fill:#abb8bf;fill-opacity:1;fill-rule:nonzero;stroke:none"
             d="m 7525.83,2537.1 -5081.3,17 0.07,17.7 5081.3,-16.9 -0.07,-17.8" /></g></g><path
         id="path52"
         style="fill:#e6e7e8;fill-opacity:1;fill-rule:nonzero;stroke:none"
         d="m 1790.26,6490.88 c 0,0 -320.83,-29.01 -298.96,-324.87 21.88,-295.86 430.21,-232.04 700.01,-232.04 269.79,0 1830.21,-121.83 2158.33,89.46 276.99,178.36 247.92,676.29 -466.67,716.9 -42.41,2.41 400.44,815.99 -739.36,1022.13 -797.97,144.31 -897.3,-545.66 -897.3,-545.66 0,0 -424.39,60.63 -569.9,-312.92 -109.49,-281.09 113.85,-413 113.85,-413" /><path
         id="path54"
         style="fill:#3c6d8a;fill-opacity:1;fill-rule:nonzero;stroke:none"
         d="m 2834.05,10190.8 c -1.52,-1.8 -3.42,-3.3 -5.67,-4.4 -41.61,-20.2 -76.8,-49.3 -99.57,-82.6 -5.59,-7.9 -16.35,-10 -24.31,-4.6 -7.97,5.5 -10,16.4 -4.54,24.3 26.25,38.3 66.14,71.5 113.14,94.4 8.68,4.2 19.14,0.6 23.36,-8.1 3.13,-6.4 1.95,-13.9 -2.41,-19 z m -90.23,-326.97 c -0.9,-1.07 -1.95,-2.04 -3.14,-2.9 -7.85,-5.63 -18.78,-3.82 -24.4,4.03 -18.72,26.14 -33.36,55.39 -43.5,86.94 -5.45,16.96 -8.55,34.29 -9.23,51.5 -0.36,9.6 7.15,17.7 16.8,18.1 9.66,0.4 17.78,-7.1 18.16,-16.8 0.54,-13.99 3.09,-28.16 7.57,-42.1 9.03,-28.09 22.02,-54.09 38.63,-77.27 4.77,-6.66 4.19,-15.53 -0.89,-21.5 z m 339.72,342.97 c -4.53,-5.3 -12.01,-7.6 -19.02,-5.2 -41.66,14.3 -85.54,19.3 -130.43,14.8 -9.6,-1 -18.19,6 -19.16,15.6 -0.97,9.6 6.04,18.2 15.63,19.1 49.96,5.1 98.87,-0.4 145.36,-16.5 9.12,-3.1 13.98,-13 10.83,-22.2 -0.74,-2.1 -1.84,-4 -3.21,-5.6 z m 378.16,144.8 c -3.38,-4 -8.49,-6.5 -14.1,-6.2 -9.65,0.4 -17.13,8.6 -16.7,18.2 1.61,36.3 1.59,74.5 -0.07,113.3 -0.41,9.6 7.07,17.8 16.73,18.2 9.65,0.4 17.81,-7.1 18.22,-16.7 1.69,-39.9 1.71,-79 0.06,-116.3 -0.18,-4 -1.71,-7.7 -4.14,-10.5 z m -500.99,-609.66 c -3.61,-4.24 -9.19,-6.69 -15.15,-6.07 -49.88,5.21 -97.94,21.06 -138.99,45.86 -8.27,5 -10.93,15.74 -5.93,24 5.04,8.33 15.75,10.93 24,5.94 36.69,-22.16 79.76,-36.34 124.55,-41.02 9.61,-1 16.58,-9.6 15.57,-19.2 -0.38,-3.65 -1.85,-6.91 -4.05,-9.51 z m 312.61,300.76 c -1.26,-1.5 -2.77,-2.8 -4.53,-3.8 -8.35,-4.9 -19.05,-2 -23.91,6.3 -23.08,39.7 -50.64,73.2 -81.91,99.8 l -3.12,2.6 c -7.41,6.2 -8.39,17.3 -2.19,24.7 l 0.08,0.1 c 6.22,7.3 17.17,8.2 24.55,2.1 l 3.33,-2.8 c 34.28,-29.2 64.4,-65.8 89.49,-108.9 3.83,-6.6 2.87,-14.6 -1.79,-20.1 z m 145.33,56.9 c -4.46,-5.3 -11.8,-7.6 -18.75,-5.4 -9.17,3 -14.2,12.9 -11.2,22.1 13.49,41.4 23.99,86.2 31.19,133.3 1.45,9.5 10.38,16 19.92,14.6 9.55,-1.5 16.1,-10.4 14.64,-19.9 -7.48,-48.9 -18.41,-95.6 -32.5,-138.9 -0.73,-2.2 -1.87,-4.2 -3.3,-5.8 z m -213.88,-296.62 c -1.1,-1.29 -2.39,-2.44 -3.89,-3.4 -41.97,-26.91 -87.01,-45.86 -133.86,-56.33 -9.43,-2.11 -18.78,3.82 -20.88,13.24 -2.1,9.44 3.84,18.78 13.25,20.88 42.84,9.59 84.1,26.96 122.61,51.65 8.14,5.21 18.95,2.85 24.16,-5.28 4.25,-6.63 3.46,-15.06 -1.39,-20.76 z m 146.98,-2.77 c -2.72,-3.2 -6.59,-5.44 -11.07,-6.02 -9.59,-1.24 -18.35,5.52 -19.59,15.1 -2.16,16.69 -5.08,33.88 -8.67,51.1 -2.18,10.46 -4.54,20.76 -7.07,30.86 -4.04,-4.71 -8.14,-9.33 -12.27,-13.82 -6.55,-7.11 -17.61,-7.55 -24.72,-1 -7.08,6.55 -7.5,17.9 -1,24.71 9.07,9.85 17.91,20.33 26.41,31.25 -1.04,3.29 -2.08,6.54 -3.16,9.77 -3.03,9.17 1.93,19.05 11.1,22.11 4.84,1.61 9.89,0.97 14.02,-1.33 10.34,15.51 20.03,31.81 29.03,48.76 4.59,8.6 15.12,11.8 23.64,7.3 8.53,-4.5 11.79,-15.1 7.26,-23.64 -13.07,-24.7 -27.58,-48.05 -43.32,-69.8 5.36,-18.66 10.16,-38.08 14.32,-58.03 3.78,-18.11 6.83,-36.18 9.11,-53.75 0.67,-5.09 -0.94,-9.95 -4.02,-13.57 z m -478.07,-662.46 c -1.78,-2.09 -4.06,-3.8 -6.79,-4.89 -77.89,-31.39 -133.15,-44.52 -135.47,-45.07 -9.4,-2.2 -18.8,3.63 -21.01,13.02 -2.22,9.42 3.61,18.81 13.02,21.03 0.54,0.13 55.17,13.14 130.4,43.46 8.95,3.61 19.13,-0.72 22.75,-9.69 2.52,-6.23 1.17,-13.08 -2.9,-17.86 z m 453.72,409.65 c -4.56,-5.37 -12.14,-7.65 -19.18,-5.15 -9.1,3.24 -13.86,13.24 -10.62,22.34 14.93,41.95 24.09,86.31 27.23,131.87 0.67,9.61 9.01,16.91 18.65,16.25 9.64,-0.67 16.91,-9.01 16.24,-18.65 -3.36,-48.74 -13.17,-96.25 -29.17,-141.19 -0.73,-2.06 -1.82,-3.9 -3.15,-5.47 z m -228.67,-287.47 c -0.9,-1.05 -1.92,-2.02 -3.08,-2.85 -36.91,-26.69 -77.7,-51.81 -121.24,-74.64 -8.56,-4.48 -19.13,-1.19 -23.61,7.36 -4.49,8.57 -1.19,19.09 7.35,23.61 42.08,22.06 81.44,46.29 116.99,72 7.83,5.66 18.76,3.91 24.42,-3.92 4.82,-6.66 4.26,-15.57 -0.83,-21.56 z m 129.47,118.1 c -12.8,-15.06 -26.7,-29.98 -41.32,-44.35 -6.89,-6.77 -17.96,-6.67 -24.73,0.22 -6.77,6.89 -6.68,17.87 0.22,24.74 33.54,32.95 62.42,68.32 85.76,105.01 5.09,8.12 15.98,10.56 24.13,5.38 8.15,-5.18 10.56,-15.98 5.38,-24.13 -14.54,-22.89 -31.17,-45.39 -49.44,-66.87" /><path
         id="path56"
         style="fill:#5091b8;fill-opacity:1;fill-rule:nonzero;stroke:none"
         d="m 2560.87,8786.55 c -12.85,26.9 -71.73,183.82 -80.43,196.15 -8.7,12.32 -421.88,-320.32 -421.88,-320.32 l -441.44,-735.99 -52.72,-111.06 369.47,298.62 c 0,0 404.26,371.08 421.11,384.22 16.85,13.14 205.89,288.38 205.89,288.38" /><path
         id="path58"
         style="fill:#195285;fill-opacity:1;fill-rule:nonzero;stroke:none"
         d="m 1564.4,7815.33 c 50.19,53.19 906.32,1146.21 916.04,1167.37 v 0 c 5.55,-7.86 31.49,-74.49 52.9,-128.73 C 2304.09,8615.89 1584.06,7833.18 1564.4,7815.33" /><path
         id="path60"
         style="fill:#5091b8;fill-opacity:1;fill-rule:nonzero;stroke:none"
         d="m 3131.97,8808.12 c 0,0 -500.37,127.81 -529.96,113.69 -29.6,-14.13 -1014.56,-1085.56 -1037.61,-1106.48 -23.05,-20.91 1567.57,992.79 1567.57,992.79" /><path
         id="path62"
         style="fill:#5091b8;fill-opacity:1;fill-rule:nonzero;stroke:none"
         d="m 2480.44,8982.7 c 6.22,13.54 -334.68,292.79 -362.99,275.98 -28.31,-16.82 -603.24,-1496.53 -553.05,-1443.35 50.19,53.19 906.32,1146.21 916.04,1167.37" /><path
         id="path64"
         style="fill:#87d0eb;fill-opacity:1;fill-rule:nonzero;stroke:none"
         d="m 1562.32,7813.93 c -0.68,0.01 -1.02,0.85 -1.02,2.52 -0.1,66.52 529.02,1426.11 556.15,1442.23 0.83,0.49 1.92,0.73 3.27,0.73 44.24,0 359.53,-258.45 359.81,-276.26 0,-0.17 -0.03,-0.32 -0.09,-0.45 -9.72,-21.16 -865.85,-1114.18 -916.04,-1167.37 v 0 c -0.08,-0.07 -0.15,-0.15 -0.22,-0.22 -0.78,-0.79 -1.4,-1.18 -1.86,-1.18" /><path
         id="path66"
         style="fill:#e6e7e8;fill-opacity:1;fill-rule:nonzero;stroke:none"
         d="m 4767.07,8246.6 c 0,0 -394.47,-35.66 -367.57,-399.42 26.9,-363.76 528.95,-285.31 860.66,-285.31 331.72,0 2250.27,-149.78 2653.71,110 340.56,219.29 304.81,831.51 -573.78,881.43 -52.14,2.97 492.35,1003.28 -909.06,1256.73 -981.12,177.43 -1103.24,-670.89 -1103.24,-670.89 0,0 -521.8,74.54 -700.7,-384.74 -134.62,-345.61 139.98,-507.8 139.98,-507.8" /><path
         id="path68"
         style="fill:#c5c6c7;fill-opacity:1;fill-rule:nonzero;stroke:none"
         d="m 7684.87,9635.5 c 0,0 182.47,-16.5 170.03,-184.76 -12.44,-168.27 -244.68,-131.97 -398.11,-131.97 -153.44,0 -1040.9,-69.29 -1227.51,50.87 -157.54,101.44 -141,384.63 265.4,407.73 24.12,1.37 -227.74,464.03 420.5,581.33 453.83,82.1 510.32,-310.3 510.32,-310.3 0,0 241.37,34.4 324.12,-178.01 62.27,-159.87 -64.75,-234.89 -64.75,-234.89" /><path
         id="path70"
         style="fill:#ff9662;fill-opacity:1;fill-rule:nonzero;stroke:none"
         d="m 2691.2,5609.83 c 0,0 -518.19,52.3 -389.25,60.65 1006.67,65.14 5416.69,-23.82 5534.13,-58.64 64.52,-19.13 426.16,-935.57 -36.91,-1238.82 -184.79,-121.01 -4514.04,-32.34 -5383.13,62.53 -450.95,49.23 194.62,51.13 194.62,51.13 488.5,362.72 488.1,737.78 80.54,1123.15" /><g
         id="g72"><g
           clip-path="url(#clipPath78)"
           id="g74"><path
             id="path80"
             style="fill:#e4f5ff;fill-opacity:1;fill-rule:nonzero;stroke:none"
             d="m 2514.06,4486.68 c 0,0 436.22,539.11 80.53,1123.15 l 2863.1,-28.31 2228.1,-25.28 c 0,0 228.18,-313.35 147.64,-686.23 -80.53,-372.89 -161.06,-462.77 -161.06,-462.77 l -5158.31,79.44" /><path
             id="path82"
             style="fill:#f4fbff;fill-opacity:1;fill-rule:nonzero;stroke:none"
             d="m 2514.06,4486.68 c 0,0 436.22,539.11 80.53,1123.15 l 2863.1,-28.31 2228.1,-25.28 c 0,0 228.18,-313.35 147.64,-686.23 -80.53,-372.89 -161.06,-462.77 -161.06,-462.77 l -5158.31,79.44" /><path
             id="path84"
             style="fill:#abb8bf;fill-opacity:1;fill-rule:nonzero;stroke:none"
             d="m 2700.62,5360.79 -0.37,17.74 5050.71,73.04 0.38,-17.74 -5050.72,-73.04" /><path
             id="path86"
             style="fill:#abb8bf;fill-opacity:1;fill-rule:nonzero;stroke:none"
             d="m 2731.85,5181.7 h 5103.7 v 17.7422 h -5103.7 z" /><path
             id="path88"
             style="fill:#abb8bf;fill-opacity:1;fill-rule:nonzero;stroke:none"
             d="m 7934.3,4912.56 -5207.76,87.11 0.42,17.74 5207.76,-87.11 -0.42,-17.74" /><path
             id="path90"
             style="fill:#abb8bf;fill-opacity:1;fill-rule:nonzero;stroke:none"
             d="m 7850.53,4746.47 -5171.01,49.53 0.25,17.74 5171.01,-49.53 -0.25,-17.74" /><path
             id="path92"
             style="fill:#abb8bf;fill-opacity:1;fill-rule:nonzero;stroke:none"
             d="m 7850.36,4521.81 -5234.92,120.92 0.59,17.74 5234.92,-120.92 -0.59,-17.74" /></g></g><path
         id="path94"
         style="fill:#ff7d3d;fill-opacity:1;fill-rule:nonzero;stroke:none"
         d="m 6809.21,7288.16 c 0,0 351.9,-44.14 264.33,-51.18 -683.62,-54.98 -3678.46,20.1 -3758.22,49.48 -43.82,16.14 -289.4,789.55 25.07,1045.47 125.48,102.12 3065.48,27.29 3655.68,-52.78 C 7302.31,8237.6 6863.9,8236 6863.9,8236 6532.16,7929.9 6532.43,7613.37 6809.21,7288.16" /><g
         id="g96"><g
           clip-path="url(#clipPath102)"
           id="g98"><path
             id="path104"
             style="fill:#fffaf4;fill-opacity:1;fill-rule:nonzero;stroke:none"
             d="m 6863.9,8236 c 0,0 -296.24,-454.97 -54.69,-947.84 l -1944.33,23.89 -1513.1,21.33 c 0,0 -154.95,264.45 -100.26,579.13 54.69,314.68 109.38,390.53 109.38,390.53 l 3503,-67.04" /><path
             id="path106"
             style="fill:#abb8bf;fill-opacity:1;fill-rule:nonzero;stroke:none"
             d="m 6807.26,8121.44 -3500.86,35.2 0.14,10.04 3500.86,-35.19 -0.14,-10.05" /><path
             id="path108"
             style="fill:#abb8bf;fill-opacity:1;fill-rule:nonzero;stroke:none"
             d="m 6747.01,7946.65 -3507.39,94.66 0.4,10.05 3507.39,-94.67 -0.4,-10.04" /><path
             id="path110"
             style="fill:#abb8bf;fill-opacity:1;fill-rule:nonzero;stroke:none"
             d="m 6721.43,7810.29 -3470.11,97.19 0.4,10.05 3470.11,-97.2 -0.4,-10.04" /><path
             id="path112"
             style="fill:#abb8bf;fill-opacity:1;fill-rule:nonzero;stroke:none"
             d="m 6709.39,7679.68 -3516.64,40.39 0.16,10.04 3516.65,-40.39 -0.17,-10.04" /><path
             id="path114"
             style="fill:#abb8bf;fill-opacity:1;fill-rule:nonzero;stroke:none"
             d="m 3251.59,7505.55 -0.14,10.05 3475.38,33.59 0.14,-10.05 -3475.38,-33.59" /><path
             id="path116"
             style="fill:#abb8bf;fill-opacity:1;fill-rule:nonzero;stroke:none"
             d="m 6765.16,7388.81 -3458.71,9.6 0.05,10.04 3458.7,-9.59 -0.04,-10.05" /></g></g><path
         id="path118"
         style="fill:#3c6d8a;fill-opacity:1;fill-rule:nonzero;stroke:none"
         d="m 3324.06,7094.44 c 0,0 -384.46,55.43 -288.8,64.27 746.9,69.03 4018.92,-25.24 4106.05,-62.13 47.88,-20.27 316.19,-991.41 -27.38,-1312.75 -137.1,-128.23 -3349.2,-34.27 -3994.02,66.27 -334.58,52.17 144.4,54.18 144.4,54.18 362.44,384.36 362.15,781.81 59.75,1190.16" /><g
         id="g120"><g
           clip-path="url(#clipPath126)"
           id="g122"><path
             id="path128"
             style="fill:#e4f5ff;fill-opacity:1;fill-rule:nonzero;stroke:none"
             d="m 3264.31,5904.28 c 0,0 323.66,571.28 59.75,1190.16 l 2124.28,-30 1653.14,-26.78 c 0,0 169.3,-332.05 109.54,-727.18 -59.75,-395.14 -119.5,-490.38 -119.5,-490.38 l -3827.21,84.18" /><path
             id="path130"
             style="fill:#e4f5ff;fill-opacity:1;fill-rule:nonzero;stroke:none"
             d="m 3264.31,5904.28 c 0,0 323.66,571.28 59.75,1190.16 l 2124.28,-30 1653.14,-26.78 c 0,0 169.3,-332.05 109.54,-727.18 -59.75,-395.14 -119.5,-490.38 -119.5,-490.38 l -3827.21,84.18" /><path
             id="path132"
             style="fill:#abb8bf;fill-opacity:1;fill-rule:nonzero;stroke:none"
             d="m 3402.74,6830.54 -0.28,18.8 3747.38,77.4 0.28,-18.8 -3747.38,-77.4" /><path
             id="path134"
             style="fill:#abb8bf;fill-opacity:1;fill-rule:nonzero;stroke:none"
             d="M 7212.6,6640.77 H 3425.91 v 18.8 H 7212.6 v -18.8" /><path
             id="path136"
             style="fill:#abb8bf;fill-opacity:1;fill-rule:nonzero;stroke:none"
             d="m 7285.86,6355.57 -3863.9,92.31 0.32,18.8 3863.9,-92.31 -0.32,-18.8" /><path
             id="path138"
             style="fill:#abb8bf;fill-opacity:1;fill-rule:nonzero;stroke:none"
             d="m 7223.71,6179.57 -3836.63,52.49 0.18,18.8 3836.64,-52.49 -0.19,-18.8" /><path
             id="path140"
             style="fill:#abb8bf;fill-opacity:1;fill-rule:nonzero;stroke:none"
             d="m 7223.58,5941.5 -3884.04,128.14 0.43,18.8 3884.05,-128.14 -0.44,-18.8" /></g></g><path
         id="path142"
         style="fill:#78ceff;fill-opacity:1;fill-rule:nonzero;stroke:none"
         d="m 6059.18,6659.24 c 0.95,-12.67 -52.97,-483.56 81.31,-689.98 l 115.69,212.38 210.12,-255.92 c 0,0 125.59,363.81 68.2,734.06 l -475.32,-0.54" /><path
         id="path144"
         style="fill:#f7d5a0;fill-opacity:1;fill-rule:nonzero;stroke:none"
         d="m 4739.79,10413.4 c 2.46,-43.4 31.77,-190.5 -2.98,-250.3 -34.75,-59.7 -203.72,-94.8 -203.72,-94.8 l 181.12,-231.8 377.69,-2.3 147.38,177.2 -69.69,64.8 c 0,0 -185.35,-20.6 -142.94,339.2 42.41,359.8 -286.86,-2 -286.86,-2" /><path
         id="path146"
         style="fill:#ffab3b;fill-opacity:1;fill-rule:nonzero;stroke:none"
         d="m 4609.19,10112.4 c 0,0 -297.08,-72.1 -589.41,-328.85 -292.33,-256.71 -618.74,-1030.69 339.44,-605.85 l 69.61,121.82 16.65,156.23 727.59,-155.76 201.96,-200.92 104.77,1.76 c 0,0 351.46,67.24 396.27,288.12 44.8,220.87 -592.22,675.55 -706.32,703.45 0,0 -97.86,-177.58 -289.81,-181.97 -191.96,-4.38 -270.75,201.97 -270.75,201.97" /><path
         id="path148"
         style="fill:#4f8db3;fill-opacity:1;fill-rule:nonzero;stroke:none"
         d="m 5306.49,9046.66 33.64,-222.43 -411.04,-212.29 -373.28,18.02 -299.57,146.48 c 0,0 121.63,133.23 168.59,360.69 46.97,227.45 881.66,-90.47 881.66,-90.47" /><path
         id="path150"
         style="fill:#ffab3b;fill-opacity:1;fill-rule:nonzero;stroke:none"
         d="m 4418.04,8495.45 c 0,0 -113.09,-59.03 -76.38,-170.17 36.72,-111.13 332.81,-84.64 451.49,174.74 118.67,259.38 -375.11,-4.57 -375.11,-4.57" /><path
         id="path152"
         style="fill:#ffddb1;fill-opacity:1;fill-rule:nonzero;stroke:none"
         d="m 4776.86,8467.87 -30.15,1.45 c 0,0 -140.12,-156.76 -229.63,-176.53 -79.18,-17.5 -157.99,30.05 -181.74,91.25 -2.24,-17.59 -0.8,-37.18 6.32,-58.76 35.14,-106.35 307.8,-86.63 435.2,142.59" /><path
         id="path154"
         style="fill:#ffeed8;fill-opacity:1;fill-rule:nonzero;stroke:none"
         d="m 4868.6,9609.13 c -70.49,116.31 -509.99,130.67 -509.99,130.67 l -39.99,-49.65 549.98,-81.02" /><path
         id="path156"
         style="fill:#ffeed8;fill-opacity:1;fill-rule:nonzero;stroke:none"
         d="m 5438.64,9684.55 -55.84,31.25 c 0,0 -545.9,26.36 -508.5,-106.94 37.39,-133.31 207.37,-37.91 207.37,-37.91 l 355.85,90.41 1.12,23.19" /><path
         id="path158"
         style="fill:#ffab3b;fill-opacity:1;fill-rule:nonzero;stroke:none"
         d="m 4271.86,9718.94 596.74,-109.81 c 0,0 601.46,87.84 605.88,75.97 9.19,-24.67 -105.98,-784.43 -111.92,-786.46 -2.93,-1.01 -507.35,-97.78 -507.35,-97.78 0,0 -518.21,114.61 -526.66,121.16 -16.68,12.92 -69.19,788.88 -56.69,796.92" /><g
         id="g160"><g
           clip-path="url(#clipPath166)"
           id="g162"><path
             id="path168"
             style="fill:#ff730e;fill-opacity:1;fill-rule:nonzero;stroke:none"
             d="m 4269.95,8800.86 h 1205.11 v 918.082 H 4269.95 Z" /></g></g><path
         id="path170"
         style="fill:#f7d5a0;fill-opacity:1;fill-rule:nonzero;stroke:none"
         d="m 5419.66,9434.75 c -36.63,-2.12 -89.75,-67.76 -81.4,-163.75 8.36,-95.99 28.27,-141.33 98.71,-79.87 70.43,61.46 115.24,251.27 -17.31,243.62" /><path
         id="path172"
         style="fill:#f7d5a0;fill-opacity:1;fill-rule:nonzero;stroke:none"
         d="m 4243.68,9491.31 c -52.02,-44.39 -44.34,-352.39 89.26,-279.48 133.6,72.9 5.46,360.3 -89.26,279.48" /><path
         id="path174"
         style="fill:#f7d5a0;fill-opacity:1;fill-rule:nonzero;stroke:none"
         d="m 5026.01,10236.8 c -6.33,40.3 -7.85,90.7 -2,153.6 -5.84,-63 -4.23,-113.3 2.12,-153.6 -0.04,0 -0.08,0 -0.12,0 m -272.53,31.8 c -0.02,0 -0.05,0.1 -0.08,0.1 -0.91,33.9 -4.86,68.7 -8.31,96.9 3.47,-28.2 7.47,-63.1 8.39,-97" /><path
         id="path176"
         style="fill:#efb264;fill-opacity:1;fill-rule:nonzero;stroke:none"
         d="m 4982.94,10235.7 c -78.09,0 -161.44,10.7 -229.46,32.9 -0.92,33.9 -4.92,68.8 -8.39,97 -1.03,8.4 -2.01,16.3 -2.85,23.3 l 31.98,30.2 256.17,53.4 c -0.03,-16.6 -1.2,-35.5 -3.74,-57.1 -1.01,-8.5 -1.89,-16.9 -2.64,-25 -5.85,-62.9 -4.33,-113.3 2,-153.6 -14.08,-0.7 -28.49,-1.1 -43.07,-1.1" /><path
         id="path178"
         style="fill:#001618;fill-opacity:1;fill-rule:nonzero;stroke:none"
         d="m 5080.76,10404.6 c 28.61,-11.4 190.38,169.6 199.74,460.4 9.37,290.9 -211.42,276.7 -211.42,276.7 0,0 -184.98,43 -191.11,41.1 -6.13,-2 -304.23,-75.4 -304.23,-75.4 0,0 -183.94,-571.5 171.6,-655.3 l 64.96,245.6 292.03,132.8 c 0,0 -30.61,-404.5 -26.09,-415.2 4.52,-10.7 4.52,-10.7 4.52,-10.7" /><path
         id="path180"
         style="fill:#f7d5a0;fill-opacity:1;fill-rule:nonzero;stroke:none"
         d="m 4676.1,10979.7 c -14.28,-13 -103.54,-94 -112.58,-281.3 -9.05,-187.3 109.52,-418.4 321.51,-411.5 211.99,6.8 353.25,245.8 333.01,533.5 -20.25,287.7 -248.65,223.7 -248.65,223.7 l -293.29,-64.4" /><path
         id="path182"
         style="fill:#f7d5a0;fill-opacity:1;fill-rule:nonzero;stroke:none"
         d="m 5175.61,10672.2 c 0,0 4.02,1.1 10.87,2.2 18.03,3 55.69,6.8 91.41,-4.8 49.3,-16.1 -50.52,-197.9 -117.62,-126.3 -67.09,71.5 15.34,128.9 15.34,128.9" /><path
         id="path184"
         style="fill:#f7d5a0;fill-opacity:1;fill-rule:nonzero;stroke:none"
         d="m 4602.87,10699.9 c 0,0 -3.91,1.4 -10.62,3.2 -17.66,4.7 -54.78,12.1 -91.45,4 -50.61,-11.2 31.22,-201.8 104.9,-137.1 73.68,64.8 -2.83,129.9 -2.83,129.9" /><path
         id="path186"
         style="fill:#001618;fill-opacity:1;fill-rule:nonzero;stroke:none"
         d="m 4808.33,11271.3 c -96.16,25.5 -289.01,-53.1 -231.25,-241.1 64.84,-211.1 488.53,-235.6 632.58,-124.1 144.04,111.4 100.02,228.1 41.6,244.3 -58.41,16.2 -148.97,-0.4 -222.26,24.1 -73.29,24.6 -160.27,80.8 -220.67,96.8" /><path
         id="path188"
         style="fill:#5a9bbf;fill-opacity:1;fill-rule:nonzero;stroke:none"
         d="m 5808.18,8415.02 c 0,0 582.74,165.68 367.65,497.18 -215.1,331.49 -1380.26,-230.37 -1380.26,-230.37 l 390.62,-255.61 396.29,-34.76 225.7,23.56" /><path
         id="path190"
         style="fill:#f7d5a0;fill-opacity:1;fill-rule:nonzero;stroke:none"
         d="m 4956.27,8627.8 127.39,-48.51 -4.4,-136.31 -158.78,49.9 35.79,134.92" /><path
         id="path192"
         style="fill:#78ceff;fill-opacity:1;fill-rule:nonzero;stroke:none"
         d="m 4979.14,8635.02 c 0,0 -556.27,330.75 -965.12,345.24 -408.85,14.5 -465.48,-168.5 -488.87,-264.71 -23.39,-96.21 114.24,-304.79 518.41,-299.66 404.16,5.14 900.44,62.01 900.44,62.01 l 35.14,157.12" /><path
         id="path194"
         style="fill:#ffab3b;fill-opacity:1;fill-rule:nonzero;stroke:none"
         d="m 5056.56,8592.75 c 0,0 2.68,-72.49 -25.97,-131.4 0,0 202.09,-167.68 406.32,-187.4 204.24,-19.72 330.49,245.63 66.02,299.54 -264.47,53.91 -446.37,19.26 -446.37,19.26" /><path
         id="path196"
         style="fill:#ffddb1;fill-opacity:1;fill-rule:nonzero;stroke:none"
         d="m 5515.58,8570.67 c 12.25,-3.24 146.33,-56.37 71.28,-194.13 -44.71,-82.06 -147.73,-93.56 -223.83,-89.41 24.36,-6.18 49.1,-10.79 73.88,-13.18 200.9,-19.4 326.33,237.02 78.67,296.72" /><path
         id="path198"
         style="fill:#d1d3d4;fill-opacity:1;fill-rule:nonzero;stroke:none"
         d="m 2208.48,5178.59 c 0,0 147.76,-13.36 137.69,-149.61 -10.08,-136.25 -198.13,-106.87 -322.38,-106.87 -124.25,0 -842.89,-56.1 -994,41.2 -127.567,82.15 -114.181,311.46 214.92,330.16 19.53,1.11 -184.42,375.8 340.5,470.74 367.5,66.46 413.24,-251.3 413.24,-251.3 0,0 195.46,27.92 262.47,-144.11 50.42,-129.45 -52.44,-190.21 -52.44,-190.21" /><path
         id="path200"
         style="fill:#f1f2f2;fill-opacity:1;fill-rule:nonzero;stroke:none"
         d="m 8395.55,6115.49 c 0,0 96.48,-8.72 89.91,-97.7 -6.58,-88.97 -129.39,-69.78 -210.52,-69.78 -81.14,0 -550.42,-36.64 -649.1,26.9 -83.3,53.64 -74.56,203.39 140.35,215.6 12.75,0.73 -120.43,245.4 222.35,307.4 239.98,43.4 269.85,-164.1 269.85,-164.1 0,0 127.64,18.23 171.4,-94.11 32.93,-84.53 -34.24,-124.21 -34.24,-124.21" /><path
         id="path202"
         style="fill:#0c3d4b;fill-opacity:1;fill-rule:nonzero;stroke:none"
         d="m 3513.77,1920.4 c -3.21,0 -6.48,0.5 -9.68,1.7 -14.89,5.3 -22.6,21.7 -17.25,36.6 456.42,1268.31 1641.72,4589.7 1645.25,4725.79 -0.16,4.97 -4.59,10.83 -13.19,17.12 -125.8,91.85 -782.28,61.72 -937.52,18.23 C 4145.21,6691.62 3987.2,6397.07 3300.64,4325.23 2919.82,3175.95 2558.17,2028.4 2554.55,2017 c -4.74,-15.1 -20.76,-23.5 -35.9,-18.7 -15.08,4.7 -23.45,20.8 -18.7,35.8 3.68,11.7 372.31,1181.45 757.33,2342.27 783.56,2362.37 869.39,2387.23 906.05,2397.86 148.38,43 834.72,86.53 989.33,-26.38 29.48,-21.53 36.2,-45.65 36.65,-62.09 4.1,-149.26 -1479.43,-4276.36 -1648.6,-4746.46 -4.21,-11.7 -15.21,-18.9 -26.94,-18.9" /><path
         id="path204"
         style="fill:#0c3d4b;fill-opacity:1;fill-rule:nonzero;stroke:none"
         d="m 6051,1925.5 c -12.3,0 -23.66,7.9 -27.39,20.3 L 4857.55,5815.43 c -4.56,15.14 4.01,31.11 19.15,35.67 15.09,4.54 31.11,-4 35.67,-19.15 L 6078.43,1962.4 c 4.55,-15.2 -4.01,-31.2 -19.15,-35.7 -2.75,-0.8 -5.54,-1.2 -8.28,-1.2" /><path
         id="path206"
         style="fill:#4f8db3;fill-opacity:1;fill-rule:nonzero;stroke:none"
         d="M 5218.44,4952.8 H 3434.62 c -31.62,0 -57.26,25.64 -57.26,57.25 0,31.62 25.64,57.26 57.26,57.26 h 1783.82 c 31.62,0 57.25,-25.64 57.25,-57.26 0,-31.61 -25.63,-57.25 -57.25,-57.25" /><path
         id="path208"
         style="fill:#4f8db3;fill-opacity:1;fill-rule:nonzero;stroke:none"
         d="m 4399,4312.52 h -0.15 l -1166.13,3.14 c -31.62,0.09 -57.18,25.79 -57.1,57.41 0.09,31.56 25.71,57.1 57.26,57.1 h 0.15 l 1166.13,-3.15 c 31.62,-0.08 57.18,-25.78 57.1,-57.4 -0.09,-31.56 -25.71,-57.1 -57.26,-57.1" /><path
         id="path210"
         style="fill:#4f8db3;fill-opacity:1;fill-rule:nonzero;stroke:none"
         d="m 4202.95,3752.68 h -0.15 l -1166.13,3.14 c -31.62,0.09 -57.18,25.79 -57.1,57.41 0.08,31.56 25.7,57.1 57.25,57.1 h 0.16 l 1166.13,-3.15 c 31.61,-0.08 57.18,-25.78 57.09,-57.4 -0.08,-31.56 -25.7,-57.1 -57.25,-57.1" /><path
         id="path212"
         style="fill:#4f8db3;fill-opacity:1;fill-rule:nonzero;stroke:none"
         d="m 4006.9,3192.82 h -0.16 l -1166.12,3.16 c -31.62,0.09 -57.19,25.79 -57.1,57.41 0.08,31.56 25.7,57.1 57.25,57.1 h 0.15 l 1166.13,-3.16 c 31.62,-0.08 57.19,-25.79 57.1,-57.41 -0.08,-31.56 -25.7,-57.1 -57.25,-57.1" /><path
         id="path214"
         style="fill:#4f8db3;fill-opacity:1;fill-rule:nonzero;stroke:none"
         d="m 3810.86,2633 h -0.15 l -1166.15,3.1 c -31.62,0.1 -57.18,25.8 -57.1,57.4 0.09,31.6 25.71,57.1 57.26,57.1 h 0.15 l 1166.14,-3.1 c 31.62,-0.1 57.19,-25.8 57.1,-57.4 -0.08,-31.6 -25.7,-57.1 -57.25,-57.1" /><path
         id="path216"
         style="fill:#f7d5a0;fill-opacity:1;fill-rule:nonzero;stroke:none"
         d="m 4363.33,7359.87 c -12.89,-77.31 54.12,-149.46 54.12,-149.46 0,0 85.97,-72.16 -27.89,-74.74 -113.85,-2.57 -113.85,-2.57 -113.85,-2.57 l -46.39,46.38 c 0,0 38.66,77.31 33.5,180.39 -5.15,103.09 100.51,0 100.51,0" /><path
         id="path218"
         style="fill:#f7d5a0;fill-opacity:1;fill-rule:nonzero;stroke:none"
         d="m 4194.53,7477.13 c -12.88,10.31 -29.63,42.53 -54.11,27.71 -24.49,-14.83 11.59,-111.46 54.11,-92.14 42.52,19.33 0,64.43 0,64.43" /><path
         id="path220"
         style="fill:#f7d5a0;fill-opacity:1;fill-rule:nonzero;stroke:none"
         d="m 4429.55,7498.37 c 0,1.95 23.19,35.45 51.54,13.55 28.34,-21.9 -19.33,-112.1 -57.99,-90.2 -38.65,21.91 6.45,76.65 6.45,76.65" /><path
         id="path222"
         style="fill:#efb264;fill-opacity:1;fill-rule:nonzero;stroke:none"
         d="m 4435.71,7418.32 c -4.24,0 -8.47,1.06 -12.61,3.4 -11.62,6.59 -15.67,16.15 -15.65,26.3 0.05,23.59 22.1,50.35 22.1,50.35 0,1.47 13.23,20.95 31.92,20.95 6.06,0 12.68,-2.04 19.62,-7.4 5.98,-4.62 8.58,-12.29 8.59,-21.3 0.03,-29.12 -26.96,-72.3 -53.97,-72.3" /><path
         id="path224"
         style="fill:#f7d5a0;fill-opacity:1;fill-rule:nonzero;stroke:none"
         d="m 4418.73,7229.74 c 0,0 -43.81,-78.6 -189.41,-18.05 0,0 -42.52,-41.23 -114.68,-15.46 -72.15,25.77 -316.97,304.09 -372.37,615.91 0,0 59.27,173.95 30.92,197.14 -14.38,11.77 -19.48,-11.27 -22.35,-34.32 -2.8,-22.39 -3.5,-44.78 -8.57,-35.25 -10.31,19.32 10.3,188.12 -18.04,197.14 -28.35,9.02 -11.6,-123.7 -33.51,-140.45 -21.9,-16.75 -69.57,-18.04 -70.86,-52.83 -1.29,-34.79 47.67,-115.96 54.11,-137.87 6.45,-21.91 23.2,-631.37 338.88,-816.92 0,0 59.27,-337.59 59.27,-432.94 0,0 316.98,-46.38 466.44,7.74 0,0 -30.92,381.39 0,383.97 30.93,2.58 193.28,-162.35 185.55,-237.09 -7.73,-74.73 -190.29,-176.78 -190.29,-176.78 l 12.13,-88.65 c 0,0 381.75,126.27 366.28,309.24 -15.46,182.97 -288.62,443.25 -493.5,475.47" /><path
         id="path226"
         style="fill:#f7d5a0;fill-opacity:1;fill-rule:nonzero;stroke:none"
         d="m 4470.27,5312.43 -7.73,-90.2 c 0,0 -26.6,-24.16 -92.32,6.77 l 4.06,92.45 95.99,-9.02" /><path
         id="path228"
         style="fill:#efb264;fill-opacity:1;fill-rule:nonzero;stroke:none"
         d="m 4423.89,5224.51 c -24.41,0 -44.41,3.17 -51.07,4.36 -0.62,0.11 -1.23,0.17 -1.84,0.17 -0.25,0 -0.51,-0.01 -0.76,-0.03 l 4.06,92.44 95.99,-9.02 -7.37,-86 c -1.01,0.34 -2.07,0.51 -3.16,0.51 -0.48,0 -0.96,-0.03 -1.44,-0.1 -11.82,-1.71 -23.55,-2.33 -34.41,-2.33" /><path
         id="path230"
         style="fill:#f7d5a0;fill-opacity:1;fill-rule:nonzero;stroke:none"
         d="m 4159.1,5291.17 -14.82,-71.73 c 0,0 -57.9,-6.23 -91.12,9.88 l 10.59,69.58 95.35,-7.73" /><path
         id="path232"
         style="fill:#001618;fill-opacity:1;fill-rule:nonzero;stroke:none"
         d="m 4468.98,5221.11 c 8.43,-17.14 28.32,-65.15 24.85,-130.69 -0.29,-5.54 -4.84,-9.92 -10.39,-9.92 h -419.9 c -6.38,0 -11.19,5.66 -10.27,11.97 2.01,13.64 8.71,35.41 30.76,46.01 32.73,15.74 246.3,78.81 284.04,90.13 1.56,0.47 3.14,0.55 4.75,0.26 9.63,-1.72 47.07,-7.57 85.48,-2.03 4.42,0.64 8.71,-1.72 10.68,-5.73" /><path
         id="path234"
         style="fill:#122628;fill-opacity:1;fill-rule:nonzero;stroke:none"
         d="m 4483.44,5080.5 h -419.9 c -5.83,0 -10.35,4.73 -10.38,10.36 0,0.53 0.04,1.07 0.11,1.61 2.01,13.64 8.71,35.41 30.76,46.01 32.73,15.74 246.3,78.81 284.04,90.13 0.96,0.29 1.93,0.43 2.91,0.43 0.61,0 1.22,-0.06 1.84,-0.17 6.66,-1.19 26.66,-4.36 51.07,-4.36 10.86,0 22.59,0.62 34.41,2.33 0.48,0.07 0.96,0.1 1.44,0.1 3.89,0 7.48,-2.26 9.24,-5.83 7.77,-15.8 25.29,-57.84 25.25,-115.65 0,-4.9 -0.13,-9.92 -0.4,-15.04 -0.29,-5.54 -4.84,-9.92 -10.39,-9.92" /><path
         id="path236"
         style="fill:#002c2f;fill-opacity:1;fill-rule:nonzero;stroke:none"
         d="m 4457.39,7571.19 c 1.24,-15.41 9.02,-261.57 -137.87,-261.57 -146.89,0 -154.62,182.97 -159.78,246.11 -5.15,63.14 23.3,145.6 148.88,144.31 125.58,-1.29 142.33,-48.96 148.77,-128.85" /><path
         id="path238"
         style="fill:#28495c;fill-opacity:1;fill-rule:nonzero;stroke:none"
         d="m 4522.24,6603.95 c 0,0 58.42,-309.25 46.39,-613.33 -12.03,-304.09 -87.62,-688.93 -87.62,-688.93 0,0 -49.82,-24.05 -121.98,-10.31 0,0 -12.02,893.37 -65.28,1037.68 0,0 -92.77,-1017.06 -132.29,-1054.86 0,0 -65.28,-15.46 -108.23,10.31 0,0 -3.44,1154.51 39.51,1326.31 42.95,171.8 429.5,-6.87 429.5,-6.87" /><path
         id="path240"
         style="fill:#001618;fill-opacity:1;fill-rule:nonzero;stroke:none"
         d="m 4151.7,5221.11 c 8.42,-17.14 28.32,-65.15 24.85,-130.69 -0.3,-5.54 -4.84,-9.92 -10.39,-9.92 h -419.91 c -6.37,0 -11.18,5.66 -10.26,11.97 2.01,13.64 8.7,35.41 30.76,46.01 32.72,15.73 246.3,78.81 284.03,90.13 1.57,0.47 3.15,0.55 4.75,0.26 9.63,-1.72 47.08,-7.57 85.49,-2.03 4.42,0.64 8.7,-1.72 10.68,-5.73" /><path
         id="path242"
         style="fill:#ddcda0;fill-opacity:1;fill-rule:nonzero;stroke:none"
         d="m 4630.85,6874.71 c -8.1,8.75 -16.21,17.05 -24.12,24.7 l 0.01,0.01 c 7.91,-7.65 16.03,-15.95 24.13,-24.71 h -0.02" /><path
         id="path244"
         style="fill:#a69a78;fill-opacity:1;fill-rule:nonzero;stroke:none"
         d="m 4646.8,6856.86 c -5.27,6.11 -10.6,12.08 -15.95,17.85 h 0.02 c 5.34,-5.77 10.67,-11.73 15.94,-17.84 l -0.01,-0.01" /><path
         id="path246"
         style="fill:#efb264;fill-opacity:1;fill-rule:nonzero;stroke:none"
         d="m 4646.81,6856.87 c -5.27,6.11 -10.6,12.07 -15.94,17.84 -8.1,8.76 -16.22,17.06 -24.13,24.71 l 142.38,136.74 c 16.77,-16.75 32.74,-34.06 47.64,-51.7 l -149.95,-127.59" /><path
         id="path248"
         style="fill:#ff903b;fill-opacity:1;fill-rule:nonzero;stroke:none"
         d="m 3822.42,7201.33 c 56.08,44.24 113.73,98.15 147.64,130.89 60.29,-75.88 115.99,-125.78 144.59,-135.99 72.15,-25.77 114.67,15.47 114.67,15.47 145.6,-60.56 189.41,18.03 189.41,18.03 117.47,-18.46 257.37,-111.92 358.29,-222.78 l -151.26,-126.82 c -37.37,39.47 -74.09,68.51 -87.19,67.42 -18.63,-1.55 -14.82,-140.51 -8.84,-250.8 l 8.84,-133.18 c -180.95,-62.4 -466.45,-7.73 -466.45,-7.73 0,95.35 -59.27,432.94 -59.27,432.94 -81.95,48.17 -143.72,124.94 -190.43,212.55" /><path
         id="path250"
         style="fill:#ff903b;fill-opacity:1;fill-rule:nonzero;stroke:none"
         d="m 7800.77,8064.4 c 2.31,6.16 9.17,9.29 15.32,6.99 33.34,-12.46 62.53,-32.4 82.8,-56.69 4.21,-5.06 3.54,-12.57 -1.52,-16.78 -5.05,-4.22 -12.48,-3.47 -16.77,1.51 -17.59,21.12 -43.33,38.62 -72.84,49.65 -1.6,0.59 -2.99,1.5 -4.13,2.61 -3.29,3.19 -4.56,8.14 -2.86,12.71 z m 83.12,-214.09 c 9.76,16.79 16.9,35.25 21.21,54.88 2.14,9.74 2.95,19.52 2.42,29.06 -0.37,6.56 4.66,12.19 11.23,12.56 6.57,0.36 12.19,-4.69 12.56,-11.23 0.65,-11.7 -0.34,-23.65 -2.95,-35.5 -4.83,-22.04 -12.87,-42.82 -23.89,-61.75 -3.3,-5.69 -10.59,-7.61 -16.28,-4.3 l -2.32,1.76 c -3.83,3.72 -4.79,9.7 -1.98,14.52 z m -252.99,199.74 c -2.72,5.99 -0.07,13.05 5.91,15.78 30.49,13.86 63.29,20.77 97.5,20.55 6.57,-0.04 11.87,-5.41 11.83,-11.99 -0.04,-6.58 -5.41,-11.88 -11.99,-11.83 -30.72,0.2 -60.16,-6 -87.47,-18.42 -4.6,-2.09 -9.83,-1.01 -13.24,2.3 -1.03,1.01 -1.9,2.22 -2.54,3.61 z m -266.67,77.06 c -3.53,25.2 -6.03,51.72 -7.45,78.85 -0.34,6.56 4.71,12.16 11.28,12.51 6.57,0.35 12.17,-4.7 12.51,-11.27 1.38,-26.44 3.82,-52.27 7.25,-76.79 0.91,-6.51 -3.63,-12.53 -10.15,-13.44 -3.79,-0.53 -7.41,0.78 -9.96,3.26 -1.82,1.78 -3.1,4.16 -3.48,6.88 z m 379.08,-381.75 c -1.3,6.45 2.87,12.73 9.32,14.02 30.07,6.06 58.36,18.45 81.8,35.84 5.27,3.92 12.71,2.84 16.66,-2.48 3.92,-5.28 2.81,-12.74 -2.47,-16.66 -26.24,-19.45 -57.8,-33.3 -91.29,-40.04 -4,-0.81 -7.94,0.49 -10.66,3.14 -1.66,1.61 -2.87,3.73 -3.36,6.18 z m -230.48,191.12 c 14.23,30.84 32.29,57.61 53.66,79.57 l 2.08,2.11 c 4.61,4.66 12.09,4.73 16.78,0.17 l 0.06,-0.06 c 4.68,-4.63 4.73,-12.17 0.1,-16.85 l -1.94,-1.98 c -19.49,-20.02 -36.02,-44.56 -49.11,-72.95 -2.76,-5.97 -9.83,-8.57 -15.81,-5.82 -1.26,0.59 -2.37,1.36 -3.31,2.28 -3.52,3.42 -4.68,8.82 -2.51,13.53 z m -102.31,19.45 c -12.34,28.4 -22.75,59.35 -30.98,92.02 -1.6,6.38 2.26,12.86 8.64,14.46 6.38,1.6 12.85,-2.27 14.46,-8.64 7.9,-31.42 17.91,-61.14 29.73,-88.35 2.62,-6.03 -0.15,-13.05 -6.18,-15.67 -4.57,-1.98 -9.69,-0.88 -13.06,2.39 -1.07,1.05 -1.97,2.32 -2.61,3.79 z m 164.46,-177.1 c 3.01,5.84 10.18,8.14 16.04,5.13 27.7,-14.26 56.79,-23.38 86.46,-27.12 6.52,-0.82 11.14,-6.77 10.33,-13.3 -0.82,-6.53 -6.78,-11.15 -13.3,-10.33 -32.45,4.09 -64.2,14.03 -94.4,29.58 -1.07,0.55 -2.03,1.25 -2.85,2.05 -3.65,3.55 -4.74,9.21 -2.28,13.99 z m -100.8,-16.4 c 0.41,12.06 1.32,24.52 2.71,37.04 1.54,13.79 3.54,27.27 5.97,40.26 -12.07,13.73 -23.41,28.63 -33.86,44.54 -3.62,5.5 -2.1,12.88 3.4,16.5 5.49,3.6 12.83,2.07 16.49,-3.41 7.2,-10.93 14.82,-21.36 22.83,-31.21 2.65,1.83 6.03,2.58 9.42,1.8 6.41,-1.48 10.41,-7.86 8.95,-14.27 -0.52,-2.26 -1.02,-4.53 -1.52,-6.83 6.48,-6.86 13.14,-13.4 19.93,-19.49 4.85,-4.2 5.29,-11.92 0.91,-16.82 -4.4,-4.9 -11.93,-5.31 -16.82,-0.91 -3.1,2.78 -6.17,5.64 -9.21,8.58 -1.07,-7.01 -2.01,-14.15 -2.81,-21.38 -1.33,-11.91 -2.19,-23.75 -2.58,-35.21 -0.23,-6.57 -5.74,-11.72 -12.31,-11.5 -3.08,0.11 -5.85,1.38 -7.9,3.37 -2.32,2.26 -3.72,5.45 -3.6,8.94 z m 367.3,-415.38 c 1.88,6.31 8.5,9.9 14.8,8.03 52.96,-15.71 90.85,-21.01 91.22,-21.06 6.52,-0.9 11.08,-6.89 10.18,-13.42 -0.89,-6.51 -6.89,-11.07 -13.41,-10.18 -1.6,0.22 -39.92,5.56 -94.75,21.83 -1.92,0.56 -3.58,1.57 -4.92,2.87 -3.07,2.99 -4.42,7.54 -3.12,11.93 z m -333.39,240.1 c -13.74,29.45 -23.46,61.03 -28.88,93.86 -1.07,6.49 3.32,12.62 9.82,13.69 6.49,1.07 12.61,-3.34 13.69,-9.82 5.06,-30.69 14.13,-60.18 26.95,-87.66 2.78,-5.96 0.21,-13.04 -5.75,-15.82 -4.62,-2.16 -9.9,-1.09 -13.34,2.25 -1.01,0.98 -1.86,2.16 -2.49,3.5 z m 174.1,-169.11 c 3.33,5.67 10.63,7.56 16.3,4.22 25.76,-15.13 54.01,-29.03 83.96,-41.27 6.08,-2.53 9,-9.44 6.51,-15.54 -2.49,-6.08 -9.44,-9 -15.54,-6.51 -30.99,12.67 -60.26,27.07 -87.01,42.79 l -2.27,1.74 c -3.84,3.73 -4.79,9.73 -1.95,14.57 z m -131.27,99.32 c -4.04,5.19 -3.1,12.67 2.09,16.71 5.19,4.03 12.74,3.08 16.71,-2.1 18.18,-23.37 40.04,-45.49 64.91,-65.68 5.12,-4.21 5.89,-11.64 1.75,-16.75 -4.15,-5.11 -11.65,-5.89 -16.76,-1.75 -10.84,8.8 -21.23,18.02 -30.88,27.41 -13.76,13.39 -26.49,27.58 -37.82,42.16" /><path
         id="path252"
         style="fill:#ffab3b;fill-opacity:1;fill-rule:nonzero;stroke:none"
         d="m 8079.32,7117.15 c 6.97,19.07 36.79,129.26 41.89,138.18 5.11,8.92 306.68,-190.01 306.68,-190.01 l 346.72,-470.58 42.91,-71.9 -269.75,178.66 c 0,0 -298,225.56 -310.28,233.39 -12.27,7.82 -158.17,182.26 -158.17,182.26" /><path
         id="path254"
         style="fill:#ff730e;fill-opacity:1;fill-rule:nonzero;stroke:none"
         d="m 8817.52,6522.84 -269.75,178.66 c 0,0 -298,225.56 -310.28,233.39 -12.27,7.82 -158.17,182.26 -158.17,182.26 6.97,19.07 36.79,129.26 41.89,138.18 0.11,0.19 0.37,0.29 0.76,0.29 17.42,0 305.92,-190.3 305.92,-190.3 l 346.72,-470.58 42.91,-71.9" /><path
         id="path256"
         style="fill:#ffab3b;fill-opacity:1;fill-rule:nonzero;stroke:none"
         d="m 7690.71,7094.99 c 0,0 331.03,118.89 352,111.22 20.98,-7.67 757.83,-670.68 774.81,-683.37 16.97,-12.7 -1126.81,572.15 -1126.81,572.15" /><path
         id="path258"
         style="fill:#ffbc62;fill-opacity:1;fill-rule:nonzero;stroke:none"
         d="m 8121.21,7255.33 c -5.09,8.78 208.06,220.08 228.34,210.5 20.28,-9.58 505.42,-975.82 467.97,-942.99 -37.46,32.82 -688.35,718.77 -696.31,732.49" /><path
         id="path260"
         style="fill:#ffb03b;fill-opacity:1;fill-rule:nonzero;stroke:none"
         d="m 5237.63,4535.57 c 39.56,26.27 1739.48,-10.6 1813.84,-88.59 74.36,-77.99 -46.57,-2373.68 -179.94,-2479.98 -133.37,-106.3 -1688.86,-14.6 -1722.59,77.5 -33.74,92.1 -3.07,2430.14 88.69,2491.07" /><path
         id="path262"
         style="fill:#ffdaa9;fill-opacity:1;fill-rule:nonzero;stroke:none"
         d="m 5685.66,3302.45 c -80.04,-41.21 -36.19,-921.55 21.04,-930.85 57.23,-9.3 857.01,-21.5 909.88,30.8 52.87,52.3 123.44,827.37 90.56,846.92 -32.87,19.56 -953,88.4 -1021.48,53.13" /><path
         id="path264"
         style="fill:#ffb03b;fill-opacity:1;fill-rule:nonzero;stroke:none"
         d="m 5595,4543.21 c -202.31,2.17 -346.19,-0.22 -357.37,-7.64 -91.76,-60.93 -122.43,-2399.07 -88.69,-2491.07 9.39,-25.7 136.84,-51.3 318.71,-72.6 -11.95,400.5 89.4,1975.33 127.35,2571.31" /><path
         id="path266"
         style="fill:#ff790e;fill-opacity:1;fill-rule:nonzero;stroke:none"
         d="m 5467.65,1971.9 c -181.87,21.3 -309.32,46.9 -318.71,72.6 -8.89,24.2 -13.31,204.3 -13.31,457.6 -0.03,708.26 34.41,1988.59 102,2033.47 8.55,5.68 94.7,8.41 225.23,8.41 40.17,0 84.54,-0.26 132.14,-0.77 -35.86,-563.09 -128.31,-2000.01 -128.33,-2494.61 0,-28.9 0.32,-54.6 0.98,-76.7" /><path
         id="path268"
         style="fill:#0c3d4b;fill-opacity:1;fill-rule:nonzero;stroke:none"
         d="m 5064.86,4002.73 c -64.84,20.76 -102.38,72 -102.48,143.11 -0.08,51.72 16.69,91.89 49.83,119.39 67.66,56.16 178.49,36.02 183.17,35.14 11.52,-2.14 18.92,-13.16 16.77,-24.58 -2.15,-11.41 -13.14,-18.92 -24.55,-16.77 -1.36,0.24 -96.41,17.2 -148.61,-26.24 -23.29,-19.39 -34.59,-47.81 -34.54,-86.88 0.14,-85.89 67.37,-105.85 107.38,-110.09 87.02,-9.24 205.17,39.92 221.38,114.83 2.45,11.36 13.65,18.58 25.01,16.12 11.21,-2.43 18.57,-13.64 16.12,-25.01 -21.32,-98.54 -158.52,-159.29 -266.95,-147.78 -15.23,1.62 -29.44,4.57 -42.53,8.76" /><path
         id="path270"
         style="fill:#0c3d4b;fill-opacity:1;fill-rule:nonzero;stroke:none"
         d="m 5056.92,3514.38 c -62.92,20.15 -106.03,69.18 -116.13,137.21 -8.79,59.28 3.35,104.88 36.08,135.53 64.7,60.56 185.16,35.35 190.25,34.25 11.23,-2.47 18.57,-13.65 16.11,-25.01 -2.46,-11.36 -13.65,-18.57 -25.01,-16.12 -1.92,0.41 -104.34,21.43 -152.65,-23.9 -22,-20.65 -29.79,-53.81 -23.15,-98.58 12.82,-86.47 87.37,-114.16 152.84,-111.23 72.47,3.25 149.69,45.57 153.47,110.78 0.67,11.61 10.62,20.47 22.22,19.79 11.63,-0.66 20.46,-10.62 19.79,-22.22 -5.35,-92.29 -103.74,-146.37 -193.6,-150.38 -29.15,-1.31 -56.14,2.17 -80.22,9.88" /><path
         id="path272"
         style="fill:#0c3d4b;fill-opacity:1;fill-rule:nonzero;stroke:none"
         d="m 5013.25,3077.1 c -13.06,4.18 -25.4,9.45 -36.75,15.8 -50.61,28.4 -77.5,75.52 -75.69,132.68 2.05,64.79 23.48,111.63 63.7,139.23 74.79,51.32 185.3,13.5 190.07,11.9 10.97,-3.83 16.75,-15.84 12.91,-26.8 -3.83,-10.97 -16.03,-16.71 -26.79,-12.92 -1.66,0.49 -95.62,32.2 -152.49,-6.95 -28.49,-19.6 -43.74,-55.2 -45.34,-105.79 -1.32,-41.88 16.92,-73.72 54.22,-94.64 63.01,-35.33 168.33,-28.74 234.74,14.76 31.53,20.66 67.8,58.21 61.61,119.83 -1.17,11.56 7.26,21.88 18.82,23.04 11.59,1.16 21.88,-7.28 23.04,-18.83 6.49,-64.47 -22.07,-121.02 -80.41,-159.23 -67.73,-44.38 -166.51,-56.13 -241.64,-32.08" /><path
         id="path274"
         style="fill:#0c3d4b;fill-opacity:1;fill-rule:nonzero;stroke:none"
         d="m 4975.23,2594 c -18.89,6.1 -36.57,14.5 -52.2,25.7 -32.62,23.4 -68.95,67.9 -56.85,147 11.06,72.2 41.07,122.9 89.21,150.68 82.54,47.71 186.41,8.24 190.83,6.5 10.83,-4.21 16.2,-16.41 11.98,-27.24 -4.2,-10.84 -16.46,-15.94 -27.2,-12.04 -0.87,0.4 -89.83,33.91 -154.74,-3.8 -36.42,-21.1 -59.46,-61.6 -68.48,-120.5 -7.13,-46.6 6.25,-82.3 39.76,-106.4 53.45,-38.2 153.62,-40 223.33,-3.8 23.39,12.2 62.56,39.3 62.15,84.5 -0.11,11.6 9.23,21.1 20.85,21.2 11.55,0.1 21.12,-9.2 21.22,-20.9 0.46,-50.1 -29.67,-93.5 -84.82,-122.1 -57.86,-30.1 -144.71,-41.3 -215.04,-18.8" /><path
         id="path276"
         style="fill:#0c3d4b;fill-opacity:1;fill-rule:nonzero;stroke:none"
         d="m 5006.96,2197.8 c -12.51,4 -24.23,9.1 -34.83,15.4 -43.81,25.8 -66.82,68.8 -64.79,121 2.29,58.6 22.28,101.9 59.43,128.6 68.99,49.5 170.54,20.5 174.83,19.2 l 0.49,-0.1 c 10.85,-3.5 16.99,-15 13.76,-26 -3.27,-11.1 -14.95,-17.5 -26.09,-14.3 -1.08,0.4 -86.46,24.5 -138.56,-13.1 -25.99,-18.7 -40.06,-51 -41.81,-96 -1.44,-37 13.4,-65 44.12,-83.1 51.91,-30.6 142.03,-26.5 200.89,9.1 24.18,14.6 52.58,40.4 50.59,80.1 -0.58,11.6 8.36,21.4 19.96,22 11.61,0.6 21.49,-8.3 22.07,-19.9 2.36,-47.2 -22.8,-89.2 -70.84,-118.2 -60.18,-36.4 -145.07,-45.2 -209.22,-24.7" /><path
         id="path278"
         style="fill:#abb8bf;fill-opacity:1;fill-rule:nonzero;stroke:none"
         d="m 6601.48,3052.25 h -0.03 l -812.8,2.61 c -5.53,0.02 -9.99,4.52 -9.97,10.03 0.02,5.52 4.49,9.97 10,9.97 h 0.02 l 812.81,-2.61 c 5.52,-0.02 9.99,-4.51 9.97,-10.03 -0.02,-5.52 -4.49,-9.97 -10,-9.97" /><path
         id="path280"
         style="fill:#abb8bf;fill-opacity:1;fill-rule:nonzero;stroke:none"
         d="m 5787.02,2856.2 c -5.38,0.2 -9.63,4.7 -9.57,10.1 0.08,5.6 4.62,10 10.14,9.9 l 782.63,-10.5 h 0.3 c 5.37,-0.3 9.63,-4.7 9.57,-10.1 -0.08,-5.6 -4.62,-10 -10.14,-9.9 l -782.63,10.5 h -0.3" /><path
         id="path282"
         style="fill:#abb8bf;fill-opacity:1;fill-rule:nonzero;stroke:none"
         d="m 5754.54,2664.6 c -5.35,0.5 -9.39,5.2 -9.04,10.6 0.36,5.5 5.11,9.7 10.63,9.3 l 814.88,-52.4 c 5.33,-0.5 9.7,-5.1 9.34,-10.7 -0.36,-5.5 -5.11,-9.7 -10.63,-9.3 l -814.88,52.5 h -0.3" /><path
         id="path284"
         style="fill:#ffbc62;fill-opacity:1;fill-rule:nonzero;stroke:none"
         d="m 7549.48,2225.8 4.74,19.7 c 77.38,2.4 148.97,5.3 214.02,8.7 l -218.76,-28.4 m 302.49,89.5 c -117.15,22.3 -261.43,44.1 -261.43,44.1 v 0 0 c -1.88,4.6 -3.75,9.2 -5.59,13.8 l 92.15,383.1 255.79,-35 -80.92,-406" /><path
         id="path286"
         style="fill:#789862;fill-opacity:1;fill-rule:nonzero;stroke:none"
         d="m 7554.22,2245.5 27.43,114 8.89,-0.1 v 0 c 0,0 144.28,-21.8 261.43,-44.1 l -10.27,-51.6 -73.46,-9.5 c -65.05,-3.4 -136.64,-6.3 -214.02,-8.7" /><path
         id="path288"
         style="fill:#ffb155;fill-opacity:1;fill-rule:nonzero;stroke:none"
         d="m 7590.54,2359.4 v 0 l -8.89,0.1 3.3,13.7 c 1.84,-4.6 3.71,-9.2 5.59,-13.8" /><path
         id="path290"
         style="fill:#ff8d2e;fill-opacity:1;fill-rule:nonzero;stroke:none"
         d="m 7677.1,2756.3 255.79,-35 -91.19,-457.6 -292.21,-37.9 127.61,530.5" /><path
         id="path292"
         style="fill:#f7d5a0;fill-opacity:1;fill-rule:nonzero;stroke:none"
         d="m 8428.2,1753.5 c 0,0 -16.55,-54 -5.53,-96.1 0,0 337.98,-46.3 347.34,-19.9 9.36,26.3 14.38,55.2 -36.55,65.9 -50.92,10.8 -205.51,5.1 -308.97,89.5 l 3.71,-39.4" /><path
         id="path294"
         style="fill:#ff8d2e;fill-opacity:1;fill-rule:nonzero;stroke:none"
         d="m 8422.67,1657.4 c -4.56,17.5 -4.37,36.9 -2.62,53.7 167.41,-45.1 234.72,-26.1 261.3,-1.3 21.86,-2.1 39.96,-3.8 52.11,-6.4 50.93,-10.7 45.91,-39.6 36.55,-65.9 -9.36,-26.4 -347.34,19.9 -347.34,19.9" /><path
         id="path296"
         style="fill:#f7d5a0;fill-opacity:1;fill-rule:nonzero;stroke:none"
         d="m 7765.65,2494.3 c 9.09,24.7 20.92,116.1 35.75,126.2 14.83,10.1 -5.17,-70.9 9.43,-64.7 14.61,6.3 76.04,140.6 109.92,101 33.89,-39.6 -27.55,-174.2 -156.92,-194.2 -129.37,-19.9 1.82,31.7 1.82,31.7" /><path
         id="path298"
         style="fill:#f7d5a0;fill-opacity:1;fill-rule:nonzero;stroke:none"
         d="m 7622.46,3206.15 c 0,0 47.81,-7.14 30.53,-155.19 -17.28,-148.05 -29.18,-173.66 -29.18,-173.66 l -44.9,28.87 c 0,0 -116.67,-199.37 -254.92,-11.64 0,0 -83.67,-82.83 -97.69,-174.13 -14.01,-91.2 -198.82,125.4 -198.82,125.4 0,0 147.89,-97 156.36,202.79 l 148.11,174.26 c 0,0 289.56,-71.45 290.51,-16.7" /><path
         id="path300"
         style="fill:#5091b8;fill-opacity:1;fill-rule:nonzero;stroke:none"
         d="m 7114.79,2801.3 c 0,0 -123.63,-91.5 -200.67,-326 -77.05,-234.4 -156.76,-782.2 276.17,-800.5 432.94,-18.3 785.33,430.5 785.33,430.5 0,0 425.94,-368.7 437.5,-358.4 11.55,10.3 33.53,36 38.4,44.5 4.87,8.5 -331.13,544.4 -500.03,580.5 -168.89,36 -471.76,-352.1 -681.74,-344.4 -209.97,7.7 68.66,355.5 68.66,355.5 0,0 60.5,22.8 25.44,99.4 -35.05,76.5 -94.13,162.7 -141.83,224.9 0,0 -34.99,-21.9 -107.23,94" /><path
         id="path302"
         style="fill:#177a96;fill-opacity:1;fill-rule:nonzero;stroke:none"
         d="m 7175.43,2666.3 c 0,0 -72.03,-482.4 595.47,-156.9 l 21.39,-47.3 c 0,0 -272.08,-348.2 -544.63,-247 -272.55,101.1 -238.39,313.9 -238.39,313.9 l 166.16,137.3" /><path
         id="path304"
         style="fill:#3c6d8a;fill-opacity:1;fill-rule:nonzero;stroke:none"
         d="m 7176.5,2673.1 c 0,0 -73.1,-489.2 594.4,-163.7 l 21.39,-47.3 c 0,0 -272.08,-348.2 -544.63,-247 -272.55,101.1 -283.79,333.8 -283.79,333.8 -17.72,222 229.13,217 212.63,124.2" /><path
         id="path306"
         style="fill:#3c6d8a;fill-opacity:1;fill-rule:nonzero;stroke:none"
         d="m 7198.1,2063.2 c 10.06,-20.9 32.26,-34.3 71.65,-35.7 209.98,-7.7 512.85,380.4 681.74,344.4 168.9,-36.1 504.9,-572 500.03,-580.5 -4.87,-8.5 -26.85,-34.2 -38.4,-44.5 -11.56,-10.3 -437.5,358.4 -437.5,358.4 0,0 -352.39,-448.8 -785.33,-430.5 -227,9.6 -313.02,164.8 -332.42,344 180.9,-55.3 295.73,9.6 340.23,44.4" /><path
         id="path308"
         style="fill:#f7c88b;fill-opacity:1;fill-rule:nonzero;stroke:none"
         d="m 7290.88,2855.9 v 0 c 18.01,23.6 32.73,38.25 33.1,38.62 -0.37,-0.37 -15.09,-15.02 -33.1,-38.62 m 33.1,38.63 c 0.01,0 0.01,0 0.01,0 0,0 0,0 -0.01,0" /><path
         id="path310"
         style="fill:#efb264;fill-opacity:1;fill-rule:nonzero;stroke:none"
         d="m 7290.88,2855.9 -94.44,140.44 c 0,0 12.41,60.17 25.62,97.22 l 21.32,25.08 c 2.15,-3.52 4.06,-10.01 5.6,-20.48 13.14,-89.32 55.17,-149.74 75.01,-203.63 v 0 0 c 0,0 0,0 -0.01,0 v -0.01 c -0.37,-0.37 -15.09,-15.02 -33.1,-38.62" /><path
         id="path312"
         style="fill:#061f26;fill-opacity:1;fill-rule:nonzero;stroke:none"
         d="m 7627.53,3064.73 c 48.41,-21.94 198.38,-17.98 163.67,119.56 -29.05,115.13 -89.47,58.82 -184.26,125.65 -94.79,66.82 -95.77,132.69 -237.96,129.12 -214.89,-5.39 -223.9,-263.3 -328.61,-369.06 -104.72,-105.77 -601.28,-393.4 -247.01,-522.8 522.74,-191 298.32,423.37 568.6,587.6 84.21,51.17 203.02,-41.73 265.57,-70.07" /></g></g></svg>